<?xml version="1.0" standalone="no"?>
<!DOCTYPE svg PUBLIC "-//W3C//DTD SVG 20010904//EN"
 "http://www.w3.org/TR/2001/REC-SVG-20010904/DTD/svg10.dtd">
<svg version="1.0" xmlns="http://www.w3.org/2000/svg"
 width="512.000000pt" height="512.000000pt" viewBox="0 0 512.000000 512.000000"
 preserveAspectRatio="xMidYMid meet">
<metadata>
Created by potrace 1.11, written by Peter Selinger 2001-2013
</metadata>
<g transform="translate(0.000000,512.000000) scale(0.100000,-0.100000)"
fill="#000000" stroke="none">
<path d="M0 2560 l0 -2560 2560 0 2560 0 0 2560 0 2560 -2560 0 -2560 0 0
-2560z m980 998 l22 -71 -21 -16 c-31 -23 -61 -72 -61 -98 0 -13 -2 -23 -4
-23 -33 0 -76 68 -76 118 0 37 81 160 106 161 6 1 21 -31 34 -71z m872 -88
c62 0 63 -16 1 -64 -84 -66 -215 -247 -274 -381 -11 -25 -27 -49 -35 -52 -10
-3 -32 10 -57 35 -45 43 -111 79 -194 106 -32 11 -53 23 -53 32 0 47 160 230
244 279 76 44 129 56 230 50 49 -3 111 -5 138 -5z m-811 -120 c4 -19 15 -49
23 -65 21 -39 20 -45 -4 -45 -11 0 -38 16 -59 36 -36 32 -39 38 -30 62 24 62
59 68 70 12z m2888 -301 c35 -7 86 -22 111 -35 49 -24 100 -67 100 -82 0 -6 8
-13 17 -16 11 -5 28 7 58 40 69 80 169 92 146 19 -6 -16 -19 -61 -29 -100
l-19 -70 -49 -3 c-53 -3 -74 -20 -74 -58 0 -37 -36 -110 -76 -154 -21 -23 -66
-55 -103 -73 -63 -30 -72 -32 -186 -32 -91 0 -130 4 -162 17 -53 22 -96 11
-91 -24 4 -28 49 -42 179 -56 205 -23 302 -61 355 -141 48 -74 43 -164 -17
-254 -33 -51 -78 -83 -154 -109 -72 -26 -361 -25 -460 1 -148 38 -218 93 -230
179 -12 89 40 154 137 170 55 10 61 33 15 60 -93 55 -56 188 65 228 26 8 48
20 48 25 0 5 -12 28 -27 52 -24 37 -28 52 -27 117 0 57 5 85 22 117 45 86 145
155 257 179 78 16 115 16 194 3z m-1669 -33 c34 -14 78 -38 97 -52 51 -39 83
-114 83 -194 0 -66 -3 -81 -38 -205 -10 -38 -31 -117 -47 -175 -15 -58 -34
-111 -43 -118 -12 -9 -53 -12 -147 -10 l-130 3 -5 29 c-6 36 -13 36 -54 4 -69
-55 -189 -73 -276 -41 -56 20 -66 28 -102 77 -79 109 6 295 156 341 28 8 107
20 175 26 68 6 144 18 170 27 40 15 46 22 49 50 3 27 -2 35 -30 52 -56 34
-112 20 -156 -39 -26 -36 -51 -39 -192 -20 -111 15 -120 24 -87 80 38 65 104
124 172 156 80 36 121 43 241 38 79 -3 115 -9 164 -29z m969 4 c49 -25 91 -69
108 -113 17 -46 15 -153 -3 -217 -8 -30 -28 -106 -44 -169 -16 -62 -34 -128
-39 -145 -5 -17 -12 -43 -15 -58 -12 -53 -26 -58 -172 -58 -156 0 -155 -1
-131 88 74 269 106 407 101 428 -13 52 -81 70 -127 34 -44 -35 -54 -61 -117
-305 -45 -173 -58 -215 -70 -231 -17 -19 -272 -21 -288 -1 -7 9 -2 42 19 117
17 58 50 182 74 275 60 230 91 340 99 353 4 7 56 10 149 9 139 -2 142 -2 145
-24 4 -25 26 -31 39 -10 10 16 52 43 78 50 40 12 153 -2 194 -23z m-2086 -234
c29 -8 86 -22 127 -31 83 -19 128 -39 136 -60 3 -7 -22 -70 -55 -138 -34 -69
-61 -128 -61 -131 0 -3 -13 -28 -30 -56 -16 -28 -30 -57 -30 -65 0 -8 -10 -24
-22 -37 -23 -24 -24 -24 -220 -20 -230 4 -221 -2 -161 109 20 38 73 140 118
228 94 186 112 215 132 215 8 0 38 -6 66 -14z"/>
<path d="M3781 2859 c-51 -47 -67 -143 -31 -179 69 -69 171 -6 174 107 1 46
-3 58 -23 74 -32 26 -91 25 -120 -2z"/>
<path d="M3510 2183 c-111 -57 19 -135 227 -137 98 -1 104 0 129 26 52 51 1
90 -144 107 -53 6 -115 14 -137 17 -28 3 -51 -1 -75 -13z"/>
<path d="M1991 2585 c-31 -8 -65 -25 -82 -41 -81 -78 19 -162 117 -98 28 19
74 102 74 134 0 24 -26 25 -109 5z"/>
</g>
</svg>
